<?xml version="1.0" encoding="UTF-8"?>
<svg id="Warstwa_1" data-name="Warstwa 1" xmlns="http://www.w3.org/2000/svg" viewBox="0 0 50 50">
  <defs>
    <style>
      .cls-1 {
        fill: #c1986c;
        stroke-width: 0px;
      }
    </style>
  </defs>
  <path class="cls-1" d="m4.11,13.03c0-4.93,4-8.92,8.92-8.92s8.92,4,8.92,8.92-4,8.92-8.92,8.92-8.92-4-8.92-8.92m2.99-5.94c-3.28,3.28-3.28,8.6,0,11.87,3.28,3.28,8.6,3.28,11.87,0,3.28-3.28,3.28-8.6,0-11.87-3.28-3.28-8.6-3.28-11.87,0Zm-1.18,5.88c0,3.9,3.15,7.06,7.03,7.06s7.03-3.16,7.03-7.06c0-2.08-.9-3.96-2.33-5.25-3.23-2.89-8.3-2.25-10.67,1.51-.67,1.08-1.06,2.36-1.06,3.73Zm1.2,3.51v-.02c2.54-.18,4.36-1.35,5.66-3.2.01,0,.03.02.04.02-1.08,2.3-.94,4.46.06,6.5h-.03c-1.46-2.15-3.42-3.13-5.72-3.3Zm-.1-.17v-.03c1.12-2.34.99-4.53-.01-6.61v-.03c1.45,2.12,3.37,3.11,5.62,3.31v.05c-2.54.22-4.33,1.42-5.61,3.31Zm.08-6.81v-.02c2.59-.19,4.41-1.38,5.71-3.26h.04c-1.1,2.29-.99,4.43-.04,6.47-.01,0-.03.01-.04.02-1.46-2.09-3.4-3.04-5.67-3.2Zm11.68-.03l.02.03c-2.55.19-4.37,1.35-5.66,3.2-.01,0-.03-.02-.04-.02,1.07-2.29.94-4.43-.04-6.47h.04c1.46,2.12,3.4,3.09,5.69,3.26Zm.1.17v.03c-1.11,2.34-.99,4.53.01,6.6v.03c-1.45-2.12-3.37-3.11-5.62-3.3v-.05c2.53-.22,4.33-1.42,5.61-3.3Zm-.08,6.8v.03c-2.61.19-4.44,1.39-5.73,3.3h-.03c1.12-2.3,1.01-4.46.06-6.5.01,0,.03-.01.04-.02,1.46,2.08,3.39,3.04,5.67,3.2Z"/>
  <path class="cls-1" d="m21.27,30.84c-.22.09-.07.41.14.33,1.71-.69,2.9-1.97,3.07-3.68.07-.7-.05-1.4-.32-2.01-.25-.56-.63-1.05-1.1-1.4-.15-.16-.38-.33-.68-.48-.55-.28-1.32-.5-2.18-.47-.85.03-1.79.33-2.66,1.08-.52.45-1.01,1.07-1.45,1.89-.27.44-.72,1.02-1.08,1.48-.93,1.1-1.98,1.86-3.17,2.24-1.19.38-2.53.37-4.03-.05-1.06-.36-2.37-1.26-3.23-2.72-1.36-2.32-1.02-6.2.74-8.08-.06-.08-.12-.16-.18-.24-.31.3-.59.66-.83,1.1-.73,1.33-1.1,2.79-.99,4.3.09,1.21.44,2.23.94,3.08.91,1.55,2.31,2.5,3.43,2.88h0s0,0,0,0c1.58.44,2.99.45,4.25.05,1.26-.4,2.37-1.19,3.34-2.35,0,0,.01-.01.02-.02.39-.48.71-.86,1.1-1.51.42-.79.88-1.37,1.37-1.79.8-.69,1.65-.96,2.43-.99.78-.03,1.49.17,1.99.43.26.13.47.28.59.41h0s.02.02.03.02c.94.68,1.4,1.92,1.28,3.09-.16,1.58-1.26,2.76-2.85,3.4m-15.51-2.55c.88.46,1.52.53,2.3-.02.4-.39.71-.84.84-1.41.11-.41.1-.82.05-1.22-.22-.78-.43-.92-1.01-1.31,1.6-.86,3.31.78,2.85,2.65-.79,2.31-2.97,3.38-5.03,1.31Zm6.96,5.56c-.62-.73-1.27-1.16-1.81-1.42.51.64.84,1.36,1.2,2.05,1.45,2.78,3.9,0,2.05-1.36.08,1.23-.94,1.36-1.44.73Zm-9.34-5.71c-.28-1.24-.23-2.29-.09-3.07.42,2.24,1.58,3.15,1.59,4.4.01,2.29-3.32,2.29-3.32-.3,1.19,1.03,2.09.01,1.83-1.02Zm2.54,5.13c.29-1.07.55-2.02-.05-3.85.92.86,1.64,1.91,1.49,3.77-.34,1.9.3,2.52,1.12,2.92-1.74.07-2.97-.87-2.56-2.84Zm6.79-4.06c-.79.59-1.48.67-2.16.67.42-.25.96-.44,1.17-.78.3-.45.4-1.05.28-1.43-.18-.8-.19-1.57.37-2.12.9-.84,1.73-.79,2.51-.58-.64.39-1.38.86-1.45,1.83,0,1.41-.14,1.86-.73,2.41Zm1.88,1.66c.8-.78,1.81-.88,2.88.15-.3-1.13-1.07-2-2.22-2-.56,0-.9.08-1.52.47-1.13.7-2.3,1.21-4.27,1.04.78.33,1.57.66,2.35,1,.78.26,1.62.27,2.78-.66Zm-4.75,4.4c.52-.42.7-1.08.65-1.9.34.44.63.91.58,1.66-.19.98-.9,1.4-1.66,1.26-.29-.1-.56-.3-.74-.8.47.12.86.06,1.17-.22Zm5.82-4.51c1.85,2.62,5.45,1.3,5.85-1.03.15-.7-.27-1.43-.99-1.62-2.71-.23-.35,4.41-4.86,2.65Zm6.42,6.35c-3.12-.93-2.92-4.67-.75-5.75.64-.35,1.48-.18,1.89.43,1.04,2.45-4.21,1.65-1.13,5.31Zm-4.42-4.5c-1.39,1.79-1.32,3.6-.42,4.85.06-1.55.28-2.84,2.11-3.31-.2-.62.08-1.26.27-1.91-.74.51-1.39.43-1.95.37Zm-8.72,9.53c-.17.16.1.41.26.25,3.88-3.82,3.71-8.21-.18-11.83-.17-.16-.42.09-.25.25,3.74,3.49,3.9,7.65.16,11.33Zm4.4-2.72c-.62-.29-.97-.98-1.13-1.95-.22.63-.39,1.27-.15,2.12.45,1.06,1.25,1.27,1.97.84.26-.22.47-.55.53-1.18-.43.31-.84.38-1.21.18Zm-10.14,2.67c1.85,2.62,5.45,1.3,5.85-1.03.15-.7-.27-1.43-.99-1.62-2.71-.23-.35,4.41-4.86,2.65Zm6.42,6.35c-3.12-.93-2.92-4.67-.75-5.74.64-.35,1.48-.18,1.88.43,1.04,2.44-4.21,1.65-1.13,5.31Zm-2.96-2.75c-2.01,1.13-3.85.84-5.04-.16,1.6.13,2.95.06,3.65-1.64.62.27,1.31.07,2-.03-.61.65-.6,1.28-.61,1.83Z"/>
  <path class="cls-1" d="m30.85,21.27c.09-.22.41-.07.33.14-.69,1.71-1.97,2.9-3.68,3.07-.7.07-1.4-.05-2.01-.32-.56-.25-1.05-.63-1.4-1.1-.16-.15-.33-.38-.48-.68-.28-.55-.5-1.32-.47-2.18.03-.85.33-1.79,1.08-2.66.45-.52,1.07-1.01,1.89-1.45.44-.27,1.02-.72,1.48-1.08,1.1-.93,1.86-1.98,2.24-3.17.38-1.19.37-2.53-.05-4.03h0c-.36-1.06-1.26-2.37-2.72-3.23-2.32-1.36-6.2-1.02-8.08.74-.08-.06-.16-.12-.24-.18.3-.31.66-.59,1.1-.83,1.33-.73,2.79-1.1,4.3-.99,1.21.09,2.23.44,3.08.94,1.55.91,2.5,2.31,2.88,3.43h0s0,0,0,0c.44,1.58.45,2.99.05,4.25-.4,1.26-1.19,2.37-2.35,3.34,0,0-.01.01-.02.02-.48.39-.86.71-1.51,1.1-.79.42-1.37.88-1.79,1.37-.69.8-.96,1.65-.99,2.43-.03.78.17,1.49.43,1.99.13.26.28.47.41.59,0,0,.02.02.02.03.68.94,1.92,1.4,3.09,1.28,1.58-.16,2.76-1.26,3.4-2.85m-2.55-15.51c.46.88.53,1.52-.02,2.3-.39.4-.84.71-1.41.84-.41.11-.82.1-1.22.05-.78-.22-.92-.43-1.31-1.01-.86,1.6.78,3.31,2.65,2.85,2.31-.79,3.38-2.97,1.31-5.03Zm5.56,6.96c-.73-.62-1.16-1.27-1.42-1.81.64.51,1.36.84,2.05,1.2,2.78,1.45,0,3.9-1.36,2.05,1.23.08,1.36-.94.73-1.44Zm-5.71-9.34c-1.24-.28-2.29-.23-3.07-.09,2.24.42,3.15,1.58,4.4,1.59,2.29.01,2.29-3.32-.3-3.32,1.03,1.19.01,2.09-1.02,1.83Zm5.13,2.54c-1.07.29-2.02.55-3.85-.05.86.92,1.91,1.64,3.77,1.49,1.9-.34,2.52.3,2.92,1.12.07-1.74-.87-2.97-2.84-2.56Zm-4.06,6.79c.59-.79.67-1.48.67-2.16-.25.42-.44.96-.78,1.17-.45.3-1.05.4-1.43.28-.8-.18-1.57-.19-2.12.37-.84.9-.79,1.73-.58,2.51.39-.64.86-1.38,1.83-1.45,1.41,0,1.86-.14,2.41-.73Zm1.66,1.88c-.78.8-.88,1.81.15,2.88-1.13-.3-2-1.07-2-2.22,0-.56.08-.9.47-1.52.7-1.13,1.21-2.3,1.04-4.27.33.78.66,1.57,1,2.35.26.78.27,1.62-.66,2.78Zm4.4-4.75c-.42.52-1.08.7-1.9.65.44.33.91.63,1.66.58.98-.19,1.4-.9,1.26-1.66-.1-.29-.3-.56-.8-.74.12.47.06.86-.22,1.17Zm-4.51,5.82c2.62,1.85,1.3,5.45-1.03,5.85-.7.15-1.43-.27-1.62-.99-.23-2.71,4.41-.35,2.65-4.86Zm6.35,6.42c-.93-3.12-4.67-2.92-5.74-.75-.35.64-.18,1.48.43,1.89,2.44,1.04,1.65-4.21,5.31-1.13Zm-4.5-4.42c1.79-1.39,3.6-1.32,4.85-.42-1.55.06-2.84.28-3.31,2.11-.62-.2-1.26.08-1.91.27.51-.74.43-1.39.37-1.95Zm9.53-8.72c.16-.17.41.1.25.26-3.82,3.88-8.21,3.71-11.83-.18-.16-.17.09-.42.25-.25,3.49,3.74,7.65,3.9,11.33.16Zm-2.72,4.4c-.29-.62-.98-.97-1.95-1.13.63-.22,1.27-.39,2.12-.15,1.06.45,1.27,1.25.84,1.97-.22.26-.55.47-1.18.53.31-.43.38-.84.18-1.21Zm2.67-10.14c2.62,1.85,1.3,5.45-1.03,5.85-.7.15-1.43-.27-1.62-.99-.23-2.71,4.41-.35,2.65-4.86Zm6.35,6.42c-.93-3.12-4.67-2.92-5.74-.75-.35.64-.18,1.48.43,1.89,2.44,1.04,1.65-4.21,5.31-1.13Zm-2.75-2.96c1.13-2.01.84-3.85-.16-5.04.13,1.6.06,2.95-1.64,3.65.27.62.07,1.31-.03,2,.65-.61,1.28-.6,1.83-.61Z"/>
</svg>