<?xml version="1.0" encoding="UTF-8"?>
<svg id="Warstwa_1" data-name="Warstwa 1" xmlns="http://www.w3.org/2000/svg" viewBox="0 0 92.41 50">
  <defs>
    <style>
      .cls-1 {
        fill: #1a1a18;
        stroke-width: 0px;
      }
    </style>
  </defs>
  <path class="cls-1" d="m55.24,44.61c-5.02,5.03-13.18,5.03-18.21,0s-5.03-13.18,0-18.21c5.03-5.03,13.18-5.03,18.21,0,5.03,5.03,5.03,13.18,0,18.21m-9.1,3.01c6.68,0,12.11-5.44,12.11-12.12,0-6.68-5.44-12.11-12.12-12.11-6.68,0-12.11,5.44-12.11,12.12,0,6.68,5.44,12.11,12.12,12.11Zm7.2-4.81c3.98-3.98,3.99-10.42.02-14.38s-10.4-3.94-14.38.04c-2.12,2.13-3.12,4.95-2.98,7.73.35,6.25,6.18,10.77,12.43,9.33,1.79-.42,3.49-1.33,4.89-2.73Zm2.36-4.81v.04c-2.81-2.42-5.85-3.08-9.06-2.51,0-.02,0-.04-.02-.06,3.45-1.25,5.5-3.59,6.57-6.7l.03.03c-.7,3.69.3,6.68,2.48,9.2Zm-.07.27v.04c-3.56,1.24-5.66,3.6-6.75,6.74h-.04c.7-3.62-.25-6.58-2.35-9.08l.05-.05c2.81,2.36,5.87,2.97,9.1,2.34Zm-7.03,6.86h-.04c-2.82-2.42-5.89-3.07-9.14-2.47l-.04-.04c3.45-1.22,5.53-3.51,6.63-6.56.02,0,.04.01.06.02-.64,3.62.37,6.57,2.52,9.05Zm-11.95-11.88v-.04c2.81,2.41,5.84,3.07,9.05,2.5,0,.02,0,.04.02.06-3.43,1.25-5.47,3.57-6.55,6.64l-.04-.04c.67-3.65-.32-6.62-2.48-9.13Zm.07-.29v-.04c3.55-1.24,5.65-3.6,6.74-6.74h.04c-.69,3.62.25,6.58,2.35,9.08l-.05.05c-2.81-2.36-5.86-2.97-9.09-2.34Zm7.02-6.86h.04c2.84,2.44,5.93,3.07,9.2,2.45l.03.03c-3.49,1.21-5.58,3.51-6.69,6.58-.02,0-.04-.01-.06-.02.64-3.61-.36-6.56-2.52-9.05Z"/>
  <path class="cls-1" d="m55.89,8.93c.32.13.5-.35.19-.48-2.45-1.05-4.97-.94-6.88.63-.79.65-1.38,1.48-1.72,2.37-.32.83-.43,1.71-.3,2.55,0,.31.06.72.21,1.18.27.85.84,1.86,1.74,2.7.91.84,2.16,1.49,3.81,1.61.99.07,2.12-.05,3.41-.45.72-.17,1.77-.31,2.61-.41,2.07-.18,3.91.12,5.51.95,1.6.83,2.96,2.2,4.06,4.16.72,1.44,1.14,3.7.53,6.07-.97,3.75-5.28,7.37-9,7.49-.02.14-.04.28-.06.42.62.01,1.27-.07,1.97-.28,2.1-.61,3.97-1.73,5.4-3.38,1.14-1.32,1.83-2.73,2.18-4.1.65-2.51.2-4.91-.57-6.44h0s0,0,0-.01c-1.16-2.06-2.59-3.5-4.29-4.38-1.69-.88-3.64-1.2-5.8-1.01-.01,0-.03,0-.04,0-.89.09-1.6.15-2.67.42-1.23.38-2.3.49-3.23.43-1.52-.11-2.66-.71-3.49-1.47-.83-.77-1.34-1.7-1.59-2.47-.13-.41-.19-.76-.18-1.02h0s0-.03,0-.05c-.27-1.66.53-3.39,1.84-4.47,1.77-1.45,4.1-1.54,6.37-.56m13.23,18.41c-.42-1.37-1.01-2.09-2.37-2.33-.81,0-1.59.14-2.3.59-.53.31-.93.73-1.29,1.2-.57,1.02-.49,1.38-.31,2.37-2.51-.75-2.58-4.17-.2-5.61,3.16-1.55,6.48-.41,6.47,3.79Zm-1.44-12.77c-.11,1.38.12,2.48.4,3.3.13-1.18.53-2.25.86-3.32,1.36-4.31-3.99-3.97-3.48-.7,1.17-1.34,2.34-.43,2.21.72Zm3.71,15.34c-.98,1.55-2.09,2.57-3.04,3.23,1.86-2.72,1.59-4.82,2.86-6.11,2.32-2.35,5.72,1.06,3.08,3.7-.16-2.27-2.12-2.15-2.9-.82Zm2.63-7.82c-1.39.79-2.62,1.49-3.87,3.98-.07-1.82.28-3.62,2.33-5.37,2.28-1.59,2.26-2.88,1.84-4.12,1.84,1.7,2.15,3.91-.29,5.51Zm-11.06-2.78c1.4.2,2.2.82,2.89,1.52-.68-.18-1.43-.53-1.99-.39-.77.15-1.48.66-1.74,1.17-.63,1-1.41,1.79-2.53,1.79-1.77-.07-2.58-.96-3.16-1.97,1.04.25,2.28.53,3.34-.39,1.44-1.43,2.05-1.75,3.19-1.72Zm-.22-3.6c-1.61-.01-2.75-.94-2.78-3.09-.85,1.47-.95,3.13.23,4.3.58.57,1,.84,2.03,1.08,1.87.44,3.58,1.11,5.42,3.29-.46-1.14-.92-2.28-1.39-3.42-.54-1.06-1.38-1.92-3.51-2.16Zm9.33.35c-.96-.1-1.82.39-2.6,1.28.11-.79.28-1.57,1.1-2.29,1.2-.81,2.34-.51,2.98.41.19.4.27.87-.05,1.57-.35-.6-.82-.94-1.42-.97Zm-10.54-1.33c.78-4.56-4.23-6.89-7.02-4.91-.86.56-1.18,1.73-.64,2.67,2.53,2.99,4.85-4.14,7.66,2.25Zm-.08-13.02c2.24,4.14-1.79,7.74-5.09,6.63-1.01-.29-1.69-1.32-1.48-2.36,1.43-3.55,5.98,2.6,6.57-4.26Zm-.08,9.1c3.25-.41,5.01-2.33,5.38-4.52-1.64,1.53-3.18,2.61-5.53,1.23-.43.84-1.37,1.2-2.22,1.68,1.27.24,1.85.98,2.37,1.61Zm18.62-.83c.34,0,.32-.52-.01-.52-7.86-.06-12.15,4.59-11.88,12.25.01.34.52.34.51,0-.26-7.38,3.82-11.79,11.39-11.73Zm-7.27-1.71c.33.93,0,1.99-.83,3.14.86-.42,1.7-.9,2.31-2.01.62-1.54.02-2.57-1.16-2.86-.49-.04-1.04.07-1.75.67.75.12,1.24.46,1.42,1.06Zm13.08,7.61c.78-4.56-4.23-6.89-7.02-4.91-.86.56-1.18,1.73-.64,2.67,2.53,2.99,4.85-4.14,7.66,2.25Zm-.08-13.02c2.24,4.14-1.79,7.74-5.09,6.63-1.01-.29-1.69-1.32-1.48-2.36,1.43-3.55,5.98,2.6,6.57-4.26Zm.22,5.82c3.2.89,4.79,3.07,4.98,5.3-1.5-1.76-2.94-3.07-5.39-2.05-.36-.9-1.27-1.4-2.07-2,1.28-.05,1.92-.69,2.49-1.25Z"/>
  <path class="cls-1" d="m36.35,8.94c-.32.14-.5-.35-.19-.48,2.45-1.05,4.97-.94,6.88.63.79.65,1.38,1.48,1.72,2.37.32.82.43,1.71.3,2.55,0,.31-.06.72-.21,1.18-.27.85-.83,1.86-1.74,2.7-.91.84-2.16,1.49-3.81,1.61-.99.07-2.12-.05-3.41-.45-.72-.17-1.77-.31-2.61-.41-2.07-.18-3.91.12-5.51.96-1.6.83-2.96,2.2-4.06,4.16h0c-.72,1.44-1.14,3.7-.52,6.07.98,3.75,5.28,7.36,9,7.48.02.14.04.28.06.42-.62.01-1.27-.07-1.97-.27-2.1-.61-3.97-1.73-5.4-3.38-1.14-1.32-1.83-2.73-2.19-4.1-.65-2.51-.2-4.91.56-6.44h0s0,0,0-.01c1.15-2.06,2.59-3.5,4.29-4.39,1.69-.88,3.63-1.2,5.8-1.01.01,0,.03,0,.04,0,.89.09,1.6.15,2.67.42,1.23.38,2.3.49,3.23.43,1.52-.11,2.66-.71,3.49-1.47.83-.77,1.34-1.7,1.59-2.47.13-.41.19-.76.18-1.02,0-.02,0-.03,0-.05.26-1.66-.53-3.39-1.85-4.46-1.78-1.45-4.1-1.53-6.37-.56m-13.21,18.42c.42-1.37,1.01-2.09,2.37-2.33.81,0,1.59.14,2.3.59.53.31.93.73,1.29,1.2.57,1.02.5,1.38.31,2.37,2.51-.75,2.58-4.17.2-5.61-3.16-1.55-6.48-.41-6.47,3.8Zm1.43-12.77c.11,1.38-.11,2.48-.4,3.3-.13-1.18-.53-2.25-.87-3.32-1.36-4.31,3.98-3.98,3.48-.71-1.17-1.34-2.34-.43-2.21.73Zm-3.7,15.35c.98,1.55,2.1,2.57,3.04,3.23-1.86-2.72-1.6-4.82-2.87-6.1-2.33-2.35-5.72,1.06-3.08,3.7.16-2.27,2.12-2.15,2.9-.82Zm-2.64-7.82c1.39.79,2.62,1.49,3.88,3.97.07-1.82-.28-3.62-2.33-5.36-2.28-1.59-2.26-2.88-1.84-4.12-1.84,1.7-2.14,3.91.29,5.51Zm11.06-2.79c-1.4.2-2.2.82-2.89,1.52.68-.18,1.43-.53,1.99-.39.77.15,1.48.66,1.74,1.17.63,1,1.41,1.79,2.54,1.78,1.77-.07,2.58-.96,3.15-1.98-1.04.26-2.28.53-3.34-.38-1.45-1.43-2.05-1.75-3.2-1.71Zm.22-3.6c1.61-.01,2.75-.95,2.78-3.1.85,1.47.96,3.13-.23,4.3-.58.57-1,.84-2.02,1.08-1.87.44-3.58,1.11-5.42,3.29.46-1.14.92-2.28,1.38-3.42.53-1.06,1.38-1.93,3.51-2.16Zm-9.33.36c.96-.1,1.82.38,2.6,1.28-.11-.79-.28-1.57-1.1-2.29-1.2-.8-2.34-.5-2.97.41-.19.4-.27.87.05,1.57.35-.6.82-.94,1.42-.97Zm10.54-1.34c-.79-4.56,4.23-6.89,7.02-4.92.86.56,1.18,1.73.64,2.66-2.53,2.99-4.86-4.13-7.66,2.26Zm.07-13.02c-2.23,4.14,1.79,7.74,5.1,6.62,1.01-.3,1.69-1.32,1.48-2.37-1.44-3.55-5.98,2.61-6.58-4.26Zm.09,9.1c-3.25-.4-5.01-2.33-5.39-4.52,1.64,1.52,3.18,2.61,5.53,1.22.43.84,1.37,1.2,2.22,1.68-1.27.24-1.85.98-2.37,1.62Zm-18.62-.81c-.34,0-.32-.52.01-.52,7.85-.07,12.16,4.58,11.9,12.24-.01.34-.52.34-.51,0,.25-7.38-3.83-11.78-11.4-11.72Zm7.27-1.72c-.33.93,0,1.99.83,3.14-.86-.42-1.7-.9-2.31-2.01-.62-1.53-.02-2.57,1.15-2.86.49-.04,1.04.07,1.75.67-.75.12-1.24.46-1.42,1.06Zm-13.07,7.62c-.79-4.56,4.23-6.89,7.02-4.92.86.56,1.18,1.73.64,2.66-2.53,2.99-4.86-4.13-7.66,2.26Zm.07-13.02c-2.23,4.14,1.79,7.74,5.1,6.62,1.01-.3,1.69-1.32,1.48-2.37-1.44-3.55-5.98,2.61-6.58-4.26Zm-.21,5.82c-3.2.9-4.79,3.07-4.97,5.31,1.5-1.76,2.94-3.07,5.39-2.05.36-.9,1.27-1.4,2.07-2.01-1.28-.04-1.92-.69-2.49-1.25Z"/>
</svg>