<?xml version="1.0" standalone="no"?>
<!DOCTYPE svg PUBLIC "-//W3C//DTD SVG 20010904//EN"
 "http://www.w3.org/TR/2001/REC-SVG-20010904/DTD/svg10.dtd">
<svg version="1.0" xmlns="http://www.w3.org/2000/svg"
 width="1077.000000pt" height="1077.000000pt" viewBox="0 0 1077.000000 1077.000000"
 preserveAspectRatio="xMidYMid meet">
<metadata>
Created by potrace 1.14, written by Peter Selinger 2001-2017
</metadata>
<g transform="translate(0.000000,1077.000000) scale(0.100000,-0.100000)"
fill="#000000" stroke="none">
<path d="M2145 7441 c-34 -9 -199 -91 -257 -127 -27 -17 -63 -28 -116 -34 -42
-5 -104 -18 -137 -29 -33 -11 -76 -22 -97 -25 -60 -11 -128 -98 -128 -165 0
-26 -3 -28 -82 -45 -134 -28 -190 -72 -254 -196 -22 -44 -28 -69 -29 -121 l0
-67 -43 -22 c-86 -46 -168 -164 -179 -260 -4 -32 0 -64 11 -96 l16 -48 -56
-54 c-30 -29 -61 -67 -68 -84 -13 -30 -13 -30 -14 26 -1 75 -10 116 -28 116
-8 0 -19 12 -24 26 -10 25 -13 26 -74 22 -50 -3 -75 -11 -120 -38 -139 -84
-220 -190 -248 -320 -15 -76 -4 -126 38 -168 34 -34 35 -34 107 -30 50 2 87
11 122 28 61 29 163 130 193 190 17 33 21 37 15 15 -4 -16 -8 -53 -8 -82 0
-45 4 -56 32 -85 l32 -33 -24 -28 c-59 -67 -71 -226 -25 -323 13 -28 56 -81
98 -123 l75 -74 -23 -51 c-49 -107 -33 -215 38 -261 17 -11 36 -32 43 -47 18
-43 84 -96 133 -109 l45 -11 7 -57 c13 -109 89 -222 179 -266 46 -23 64 -26
122 -23 l68 3 8 -60 c19 -131 50 -171 167 -216 58 -22 172 -27 229 -10 30 9
37 7 64 -15 17 -14 62 -42 101 -62 68 -35 75 -37 166 -36 71 1 111 7 158 23
60 22 63 22 107 6 36 -14 68 -17 167 -13 140 5 181 20 254 89 40 39 41 40 86
30 84 -19 219 19 295 83 37 31 99 122 108 158 7 29 28 38 95 38 83 1 171 61
204 140 8 19 17 72 21 118 l8 82 41 0 c138 0 204 83 227 288 12 108 23 133 80
177 45 35 105 118 115 160 7 29 7 29 21 -17 16 -57 70 -108 114 -108 34 0 92
24 110 46 6 8 21 41 33 73 l22 60 29 -57 c40 -78 175 -209 263 -255 171 -90
345 -71 470 51 86 84 100 143 61 268 -69 223 -275 487 -462 593 -150 85 -188
96 -317 96 -96 0 -122 -3 -160 -21 -72 -34 -135 -97 -172 -172 l-34 -67 1 80
c0 97 -10 118 -99 211 l-65 67 36 68 c33 63 35 73 31 133 -10 114 -92 225
-196 261 -97 35 -92 30 -92 82 0 68 -25 107 -115 186 -70 60 -88 71 -168 95
-87 26 -91 29 -138 89 -101 126 -168 165 -283 165 -39 0 -82 -5 -96 -10 -22
-8 -31 -4 -75 35 -58 51 -152 99 -212 108 -59 9 -144 -11 -192 -45 l-39 -29
-39 31 c-82 66 -200 100 -278 79z"/>
<path d="M8585 7440 c-52 -12 -98 -36 -147 -73 -46 -35 -47 -36 -70 -18 -55
43 -92 55 -168 55 -90 0 -135 -18 -234 -93 -65 -49 -71 -52 -110 -45 -152 25
-241 -12 -356 -152 -51 -62 -66 -73 -107 -83 -78 -20 -144 -54 -211 -111 -77
-66 -104 -108 -107 -168 -1 -26 -3 -52 -4 -58 0 -6 -27 -18 -59 -27 -105 -29
-201 -130 -222 -234 -15 -69 -7 -112 32 -184 l31 -57 -53 -53 c-29 -29 -66
-73 -81 -98 -26 -40 -29 -54 -29 -125 l0 -79 -30 60 c-40 80 -118 153 -195
182 -52 20 -73 22 -160 18 -113 -5 -157 -19 -293 -95 -127 -71 -226 -169 -332
-328 -122 -185 -175 -333 -150 -424 15 -56 105 -151 175 -185 100 -50 245 -43
362 16 84 43 212 163 263 247 36 59 41 64 46 44 32 -119 122 -179 204 -137 32
17 70 80 70 117 0 16 10 3 31 -39 21 -45 48 -79 95 -120 71 -63 78 -79 88
-200 7 -80 35 -166 68 -208 29 -37 93 -65 149 -65 54 0 59 -7 59 -81 0 -88 19
-139 70 -190 49 -49 95 -69 160 -69 62 0 77 -9 95 -56 21 -55 114 -158 168
-185 63 -33 168 -51 223 -39 45 10 46 10 92 -31 79 -70 118 -83 267 -87 112
-3 135 -1 164 16 34 18 34 18 95 -7 50 -20 79 -25 156 -25 91 -1 98 1 169 37
41 21 87 49 104 63 18 15 36 23 46 19 80 -32 208 -19 295 28 78 43 101 77 110
161 10 95 7 92 84 88 55 -3 77 0 115 18 90 43 172 163 183 269 6 57 8 60 39
65 52 10 119 59 138 102 10 21 33 48 50 59 18 11 42 40 55 65 28 53 25 115 -7
179 -12 22 -21 48 -21 57 0 10 29 46 64 81 91 89 126 162 126 263 0 88 -20
157 -55 190 l-24 23 28 26 c42 39 53 90 35 152 -18 59 -12 79 6 24 16 -50 126
-164 191 -200 40 -21 70 -29 125 -33 70 -4 72 -4 110 30 34 32 38 41 42 97 4
50 -1 76 -23 139 -25 68 -37 86 -104 152 -97 96 -177 140 -255 140 -45 0 -58
-4 -63 -17 -3 -10 -15 -25 -26 -34 -15 -12 -21 -32 -25 -89 l-5 -73 -18 36
c-10 19 -41 54 -68 77 l-49 42 14 40 c8 22 14 64 14 93 0 97 -83 222 -182 274
l-43 23 3 59 c3 49 -1 70 -26 122 -59 126 -134 182 -275 208 l-67 12 0 34 c0
45 -20 82 -69 126 -27 24 -51 37 -69 37 -16 0 -55 9 -88 21 -32 12 -90 24
-129 28 -61 7 -87 17 -200 78 -167 91 -216 105 -300 83z"/>
<path d="M2015 3955 c-48 -22 -74 -50 -101 -109 -68 -150 -45 -363 51 -456 27
-26 45 -34 85 -38 72 -7 118 25 162 115 32 66 33 71 33 193 -1 113 -3 130 -27
180 -14 30 -39 67 -55 83 -32 30 -93 53 -93 35 0 -7 -4 -7 -12 0 -9 7 -22 6
-43 -3z"/>
<path d="M2786 3959 c-42 -12 -91 -63 -117 -123 -28 -64 -37 -209 -19 -297 40
-190 202 -253 300 -117 42 57 62 133 61 233 0 125 -28 211 -88 268 -33 31 -93
53 -93 34 0 -8 -3 -9 -8 -1 -4 7 -18 8 -36 3z"/>
<path d="M7991 3962 c-36 -6 -106 -82 -125 -138 -26 -71 -32 -215 -13 -287 20
-74 61 -143 100 -168 25 -16 44 -19 86 -16 48 3 59 9 91 44 69 74 103 218 80
342 -22 122 -68 192 -145 221 -16 6 -26 6 -31 -1 -4 -6 -9 -7 -13 -2 -3 4 -17
7 -30 5z"/>
<path d="M8740 3954 c-48 -21 -78 -51 -100 -101 -88 -200 -16 -481 128 -500
58 -8 86 2 126 43 132 136 104 477 -44 552 -27 13 -46 18 -48 12 -3 -7 -8 -7
-15 -1 -8 6 -24 4 -47 -5z"/>
</g>
</svg>
