<?xml version="1.0" standalone="no"?>
<!DOCTYPE svg PUBLIC "-//W3C//DTD SVG 20010904//EN"
 "http://www.w3.org/TR/2001/REC-SVG-20010904/DTD/svg10.dtd">
<svg version="1.0" xmlns="http://www.w3.org/2000/svg"
 width="953.000000pt" height="953.000000pt" viewBox="0 0 953.000000 953.000000"
 preserveAspectRatio="xMidYMid meet">
<metadata>
Created by potrace 1.14, written by Peter Selinger 2001-2017
</metadata>
<g transform="translate(0.000000,953.000000) scale(0.100000,-0.100000)"
fill="#000000" stroke="none">
<path d="M5920 4930 l0 -2680 -2072 0 -2073 0 230 230 230 230 497 0 498 0 0
105 0 105 -392 0 -393 0 410 410 410 410 627 -627 628 -628 77 78 78 77 -703
703 -702 702 -563 -563 -562 -562 -705 0 -705 0 1305 1305 1305 1305 1050
-1050 c578 -578 1053 -1050 1058 -1050 4 0 7 752 7 1670 0 919 -3 1670 -8
1670 -11 0 -1022 -1014 -1022 -1025 0 -6 32 -42 70 -80 l70 -70 335 335 335
335 0 -270 0 -270 -357 -357 -358 -358 78 -77 77 -78 280 280 280 280 0 -735
0 -735 -943 943 c-518 518 -947 942 -952 942 -11 0 -3115 -3101 -3115 -3113 0
-4 384 -7 852 -7 l853 0 -335 -335 -335 -335 3993 0 3992 0 0 105 0 105 -740
0 -740 0 0 432 0 433 140 -140 140 -140 77 78 78 77 -218 218 -217 217 0 220
0 220 188 -188 187 -187 73 73 c39 40 72 77 72 82 0 6 -117 127 -260 270
l-260 260 0 275 0 275 173 -173 c95 -94 177 -172 182 -172 13 0 145 132 145
145 0 12 -701 715 -713 715 -4 0 -7 -673 -7 -1495 l0 -1495 -705 0 -705 0 0
1332 0 1333 275 -275 275 -275 77 78 78 77 -353 353 -352 352 0 410 0 410 290
-290 290 -290 77 78 78 77 -368 368 -367 367 0 375 0 375 325 -325 325 -325
75 75 75 75 -502 502 c-277 277 -506 503 -510 503 -5 0 -8 -1206 -8 -2680z"/>
<path d="M1941 6804 c-199 -53 -366 -226 -411 -423 -17 -75 -15 -204 4 -280
48 -186 198 -342 386 -402 86 -28 240 -30 325 -5 195 58 351 217 400 411 19
76 19 214 0 289 -51 196 -215 360 -411 410 -76 20 -220 20 -293 0z m247 -212
c108 -34 185 -104 235 -212 32 -70 30 -197 -5 -272 -35 -76 -99 -143 -173
-181 -55 -29 -68 -32 -155 -32 -83 0 -102 3 -151 28 -67 33 -151 118 -181 184
-34 74 -32 208 3 284 80 171 257 253 427 201z"/>
</g>
</svg>
